<svg id="adead8c3-0e17-4460-bd30-042130778c89" data-name="Layer 1" xmlns="http://www.w3.org/2000/svg" viewBox="0 0 195.06 115.88"><path d="M107,115.56V68.71c0-3.92-.7-6.84-2.11-8.78S101.21,57,98,57a8.62,8.62,0,0,0-7.32,3.52c-1.76,2.36-2.61,5.62-2.61,9.8v45.2H54.27V69.49Q54.27,57,45.78,57c-3.44,0-6,1.19-7.79,3.61S35.37,66.49,35.37,71v44.57H1.54V34.22H35.37V47.09h.33a25.7,25.7,0,0,1,6.07-7,36.33,36.33,0,0,1,9.41-5.72,29.07,29.07,0,0,1,11.36-2.18c5.77,0,10.63,1.13,14.57,3.42A26.56,26.56,0,0,1,87,46.46,28.88,28.88,0,0,1,98.42,35.94a34.11,34.11,0,0,1,15.87-3.7q12.81,0,19.62,8.34t6.83,24.06v50.89H107Z" transform="translate(-1.54 -1.65)" style="fill:#111110"/><path d="M196.61,101.41a14.8,14.8,0,0,1-5.12,11.6q-5.13,4.55-13.69,4.53-8.33,0-13.63-4.62a14.61,14.61,0,0,1-5.29-11.51A14.12,14.12,0,0,1,164,90.09q5.13-4.35,13.78-4.34c5.62,0,10.15,1.44,13.63,4.34A14.06,14.06,0,0,1,196.61,101.41Z" transform="translate(-1.54 -1.65)" style="fill:#111110"/><polygon points="189.58 75.54 162.41 75.54 158.12 0 193.78 0 189.58 75.54" style="fill:#111110"/></svg>